<svg width="23" height="22" viewBox="0 0 23 22" fill="none" xmlns="http://www.w3.org/2000/svg">
<path d="M11.4619 0C6.50939 0 2.2807 2.98064 0.71875 7.09677H22.2812C20.6812 2.98064 16.4525 0 11.4619 0Z" fill="#F9F9F9"/>
<path d="M11.4809 22.0001C16.4804 22.0001 20.7165 19.0194 22.2812 14.9033H0.71875C2.28346 19.0549 6.51963 22.0001 11.4809 22.0001Z" fill="#ED4C5C"/>
<path d="M0.651667 7.09668C0.23 8.30668 0 9.63378 0 10.9999C0 12.366 0.23 13.6931 0.651667 14.9031H22.3483C22.77 13.6931 23 12.366 23 10.9999C23 9.63378 22.77 8.30668 22.3483 7.09668H0.651667Z" fill="#428BC1"/>
</svg>
