<svg width="23" height="23" viewBox="0 0 23 23" fill="none" xmlns="http://www.w3.org/2000/svg">
<rect x="0.5" y="0.5" width="22" height="22" rx="11" stroke="#D4D4D4"/>
<path d="M9.93457 13.9648V13.5273C9.93457 13.026 10.0257 12.609 10.208 12.2764C10.3903 11.9437 10.7093 11.5996 11.165 11.2441C11.7074 10.8158 12.056 10.4831 12.2109 10.2461C12.3704 10.0091 12.4502 9.72656 12.4502 9.39844C12.4502 9.01562 12.3226 8.72168 12.0674 8.5166C11.8122 8.31152 11.4453 8.20898 10.9668 8.20898C10.5339 8.20898 10.1328 8.27051 9.76367 8.39355C9.39453 8.5166 9.03451 8.66471 8.68359 8.83789L8.10938 7.63477C9.03451 7.11979 10.0257 6.8623 11.083 6.8623C11.9762 6.8623 12.6849 7.08105 13.209 7.51855C13.7331 7.95605 13.9951 8.5599 13.9951 9.33008C13.9951 9.67188 13.945 9.97721 13.8447 10.2461C13.7445 10.5104 13.5918 10.7633 13.3867 11.0049C13.1862 11.2464 12.8376 11.5609 12.3408 11.9482C11.917 12.2809 11.6322 12.5566 11.4863 12.7754C11.3451 12.9941 11.2744 13.2881 11.2744 13.6572V13.9648H9.93457ZM9.6543 16.1455C9.6543 15.4574 9.98926 15.1133 10.6592 15.1133C10.9873 15.1133 11.238 15.2044 11.4111 15.3867C11.5843 15.5645 11.6709 15.8174 11.6709 16.1455C11.6709 16.4691 11.582 16.7266 11.4043 16.918C11.2311 17.1048 10.9827 17.1982 10.6592 17.1982C10.3356 17.1982 10.0872 17.1071 9.91406 16.9248C9.74089 16.738 9.6543 16.4782 9.6543 16.1455Z" fill="#151515"/>
</svg>
